<?xml version="1.0" encoding="UTF-8" standalone="no"?>
<!DOCTYPE svg PUBLIC "-//W3C//DTD SVG 1.1//EN"
 "http://www.w3.org/Graphics/SVG/1.1/DTD/svg11.dtd">
<!-- Generated by graphviz version 2.40.1 (0)
 -->
<!-- Title: snakemake_dag Pages: 1 -->
<svg width="227pt" height="476pt"
 viewBox="0.00 0.00 226.50 476.00" xmlns="http://www.w3.org/2000/svg" xmlns:xlink="http://www.w3.org/1999/xlink">
<g id="graph0" class="graph" transform="scale(1 1) rotate(0) translate(4 472)">
<title>snakemake_dag</title>
<polygon fill="#ffffff" stroke="transparent" points="-4,4 -4,-472 222.5,-472 222.5,4 -4,4"/>
<!-- 0 -->
<g id="node1" class="node">
<title>0</title>
<path fill="none" stroke="#56c1d8" stroke-width="2" d="M162.5,-36C162.5,-36 132.5,-36 132.5,-36 126.5,-36 120.5,-30 120.5,-24 120.5,-24 120.5,-12 120.5,-12 120.5,-6 126.5,0 132.5,0 132.5,0 162.5,0 162.5,0 168.5,0 174.5,-6 174.5,-12 174.5,-12 174.5,-24 174.5,-24 174.5,-30 168.5,-36 162.5,-36"/>
<text text-anchor="middle" x="147.5" y="-15.5" font-family="sans" font-size="10.00" fill="#000000">all</text>
</g>
<!-- 1 -->
<g id="node2" class="node">
<title>1</title>
<path fill="none" stroke="#88d856" stroke-width="2" d="M162.5,-108C162.5,-108 132.5,-108 132.5,-108 126.5,-108 120.5,-102 120.5,-96 120.5,-96 120.5,-84 120.5,-84 120.5,-78 126.5,-72 132.5,-72 132.5,-72 162.5,-72 162.5,-72 168.5,-72 174.5,-78 174.5,-84 174.5,-84 174.5,-96 174.5,-96 174.5,-102 168.5,-108 162.5,-108"/>
<text text-anchor="middle" x="147.5" y="-87.5" font-family="sans" font-size="10.00" fill="#000000">multiqc</text>
</g>
<!-- 1&#45;&gt;0 -->
<g id="edge1" class="edge">
<title>1&#45;&gt;0</title>
<path fill="none" stroke="#c0c0c0" stroke-width="2" d="M147.5,-71.8314C147.5,-64.131 147.5,-54.9743 147.5,-46.4166"/>
<polygon fill="#c0c0c0" stroke="#c0c0c0" stroke-width="2" points="151.0001,-46.4132 147.5,-36.4133 144.0001,-46.4133 151.0001,-46.4132"/>
</g>
<!-- 2 -->
<g id="node3" class="node">
<title>2</title>
<path fill="none" stroke="#d88d56" stroke-width="2" d="M134.5,-180C134.5,-180 72.5,-180 72.5,-180 66.5,-180 60.5,-174 60.5,-168 60.5,-168 60.5,-156 60.5,-156 60.5,-150 66.5,-144 72.5,-144 72.5,-144 134.5,-144 134.5,-144 140.5,-144 146.5,-150 146.5,-156 146.5,-156 146.5,-168 146.5,-168 146.5,-174 140.5,-180 134.5,-180"/>
<text text-anchor="middle" x="103.5" y="-159.5" font-family="sans" font-size="10.00" fill="#000000">salmon_quant</text>
</g>
<!-- 2&#45;&gt;1 -->
<g id="edge2" class="edge">
<title>2&#45;&gt;1</title>
<path fill="none" stroke="#c0c0c0" stroke-width="2" d="M114.6031,-143.8314C119.5674,-135.7079 125.5222,-125.9637 130.9928,-117.0118"/>
<polygon fill="#c0c0c0" stroke="#c0c0c0" stroke-width="2" points="134.0194,-118.7712 136.2474,-108.4133 128.0464,-115.121 134.0194,-118.7712"/>
</g>
<!-- 3 -->
<g id="node4" class="node">
<title>3</title>
<path fill="none" stroke="#d85656" stroke-width="2" d="M134,-252C134,-252 73,-252 73,-252 67,-252 61,-246 61,-240 61,-240 61,-228 61,-228 61,-222 67,-216 73,-216 73,-216 134,-216 134,-216 140,-216 146,-222 146,-228 146,-228 146,-240 146,-240 146,-246 140,-252 134,-252"/>
<text text-anchor="middle" x="103.5" y="-231.5" font-family="sans" font-size="10.00" fill="#000000">salmon_index</text>
</g>
<!-- 3&#45;&gt;2 -->
<g id="edge4" class="edge">
<title>3&#45;&gt;2</title>
<path fill="none" stroke="#c0c0c0" stroke-width="2" d="M103.5,-215.8314C103.5,-208.131 103.5,-198.9743 103.5,-190.4166"/>
<polygon fill="#c0c0c0" stroke="#c0c0c0" stroke-width="2" points="107.0001,-190.4132 103.5,-180.4133 100.0001,-190.4133 107.0001,-190.4132"/>
</g>
<!-- 4 -->
<g id="node5" class="node">
<title>4</title>
<path fill="none" stroke="#568ad8" stroke-width="2" d="M85,-396C85,-396 12,-396 12,-396 6,-396 0,-390 0,-384 0,-384 0,-372 0,-372 0,-366 6,-360 12,-360 12,-360 85,-360 85,-360 91,-360 97,-366 97,-372 97,-372 97,-384 97,-384 97,-390 91,-396 85,-396"/>
<text text-anchor="middle" x="48.5" y="-375.5" font-family="sans" font-size="10.00" fill="#000000">make_gentrome</text>
</g>
<!-- 4&#45;&gt;3 -->
<g id="edge5" class="edge">
<title>4&#45;&gt;3</title>
<path fill="none" stroke="#c0c0c0" stroke-width="2" d="M55.4658,-359.7623C64.9295,-334.9846 81.9311,-290.4714 92.9607,-261.5939"/>
<polygon fill="#c0c0c0" stroke="#c0c0c0" stroke-width="2" points="96.2923,-262.6803 96.5908,-252.0896 89.753,-260.1826 96.2923,-262.6803"/>
</g>
<!-- 5 -->
<g id="node6" class="node">
<title>5</title>
<path fill="none" stroke="#d8bc56" stroke-width="2" d="M186,-468C186,-468 127,-468 127,-468 121,-468 115,-462 115,-456 115,-456 115,-444 115,-444 115,-438 121,-432 127,-432 127,-432 186,-432 186,-432 192,-432 198,-438 198,-444 198,-444 198,-456 198,-456 198,-462 192,-468 186,-468"/>
<text text-anchor="middle" x="156.5" y="-447.5" font-family="sans" font-size="10.00" fill="#000000">load_toplevel</text>
</g>
<!-- 5&#45;&gt;4 -->
<g id="edge7" class="edge">
<title>5&#45;&gt;4</title>
<path fill="none" stroke="#c0c0c0" stroke-width="2" d="M129.247,-431.8314C115.5611,-422.7074 98.8085,-411.539 84.1173,-401.7449"/>
<polygon fill="#c0c0c0" stroke="#c0c0c0" stroke-width="2" points="86.0062,-398.7977 75.7442,-396.1628 82.1233,-404.6221 86.0062,-398.7977"/>
</g>
<!-- 8 -->
<g id="node9" class="node">
<title>8</title>
<path fill="none" stroke="#56d88a" stroke-width="2" d="M193.5,-396C193.5,-396 127.5,-396 127.5,-396 121.5,-396 115.5,-390 115.5,-384 115.5,-384 115.5,-372 115.5,-372 115.5,-366 121.5,-360 127.5,-360 127.5,-360 193.5,-360 193.5,-360 199.5,-360 205.5,-366 205.5,-372 205.5,-372 205.5,-384 205.5,-384 205.5,-390 199.5,-396 193.5,-396"/>
<text text-anchor="middle" x="160.5" y="-375.5" font-family="sans" font-size="10.00" fill="#000000">make_decoy_1</text>
</g>
<!-- 5&#45;&gt;8 -->
<g id="edge10" class="edge">
<title>5&#45;&gt;8</title>
<path fill="none" stroke="#c0c0c0" stroke-width="2" d="M157.5094,-431.8314C157.9372,-424.131 158.4459,-414.9743 158.9213,-406.4166"/>
<polygon fill="#c0c0c0" stroke="#c0c0c0" stroke-width="2" points="162.4169,-406.592 159.477,-396.4133 155.4276,-406.2037 162.4169,-406.592"/>
</g>
<!-- 6 -->
<g id="node7" class="node">
<title>6</title>
<path fill="none" stroke="#bed856" stroke-width="2" d="M81,-468C81,-468 16,-468 16,-468 10,-468 4,-462 4,-456 4,-456 4,-444 4,-444 4,-438 10,-432 16,-432 16,-432 81,-432 81,-432 87,-432 93,-438 93,-444 93,-444 93,-456 93,-456 93,-462 87,-468 81,-468"/>
<text text-anchor="middle" x="48.5" y="-447.5" font-family="sans" font-size="10.00" fill="#000000">load_transcript</text>
</g>
<!-- 6&#45;&gt;4 -->
<g id="edge8" class="edge">
<title>6&#45;&gt;4</title>
<path fill="none" stroke="#c0c0c0" stroke-width="2" d="M48.5,-431.8314C48.5,-424.131 48.5,-414.9743 48.5,-406.4166"/>
<polygon fill="#c0c0c0" stroke="#c0c0c0" stroke-width="2" points="52.0001,-406.4132 48.5,-396.4133 45.0001,-406.4133 52.0001,-406.4132"/>
</g>
<!-- 7 -->
<g id="node8" class="node">
<title>7</title>
<path fill="none" stroke="#59d856" stroke-width="2" d="M183.5,-324C183.5,-324 117.5,-324 117.5,-324 111.5,-324 105.5,-318 105.5,-312 105.5,-312 105.5,-300 105.5,-300 105.5,-294 111.5,-288 117.5,-288 117.5,-288 183.5,-288 183.5,-288 189.5,-288 195.5,-294 195.5,-300 195.5,-300 195.5,-312 195.5,-312 195.5,-318 189.5,-324 183.5,-324"/>
<text text-anchor="middle" x="150.5" y="-303.5" font-family="sans" font-size="10.00" fill="#000000">make_decoy_2</text>
</g>
<!-- 7&#45;&gt;3 -->
<g id="edge6" class="edge">
<title>7&#45;&gt;3</title>
<path fill="none" stroke="#c0c0c0" stroke-width="2" d="M138.6399,-287.8314C133.3371,-279.7079 126.9763,-269.9637 121.1327,-261.0118"/>
<polygon fill="#c0c0c0" stroke="#c0c0c0" stroke-width="2" points="123.9169,-258.8739 115.5198,-252.4133 118.0552,-262.7003 123.9169,-258.8739"/>
</g>
<!-- 8&#45;&gt;7 -->
<g id="edge9" class="edge">
<title>8&#45;&gt;7</title>
<path fill="none" stroke="#c0c0c0" stroke-width="2" d="M157.9766,-359.8314C156.9071,-352.131 155.6353,-342.9743 154.4468,-334.4166"/>
<polygon fill="#c0c0c0" stroke="#c0c0c0" stroke-width="2" points="157.8999,-333.8367 153.0574,-324.4133 150.9664,-334.7997 157.8999,-333.8367"/>
</g>
<!-- 9 -->
<g id="node10" class="node">
<title>9</title>
<path fill="none" stroke="#56d8c1" stroke-width="2" d="M206.5,-180C206.5,-180 176.5,-180 176.5,-180 170.5,-180 164.5,-174 164.5,-168 164.5,-168 164.5,-156 164.5,-156 164.5,-150 170.5,-144 176.5,-144 176.5,-144 206.5,-144 206.5,-144 212.5,-144 218.5,-150 218.5,-156 218.5,-156 218.5,-168 218.5,-168 218.5,-174 212.5,-180 206.5,-180"/>
<text text-anchor="middle" x="191.5" y="-159.5" font-family="sans" font-size="10.00" fill="#000000">fastqc</text>
</g>
<!-- 9&#45;&gt;1 -->
<g id="edge3" class="edge">
<title>9&#45;&gt;1</title>
<path fill="none" stroke="#c0c0c0" stroke-width="2" d="M180.3969,-143.8314C175.4326,-135.7079 169.4778,-125.9637 164.0072,-117.0118"/>
<polygon fill="#c0c0c0" stroke="#c0c0c0" stroke-width="2" points="166.9536,-115.121 158.7526,-108.4133 160.9806,-118.7712 166.9536,-115.121"/>
</g>
</g>
</svg>
