<?xml version="1.0" encoding="UTF-8" standalone="no"?>
<!DOCTYPE svg PUBLIC "-//W3C//DTD SVG 1.1//EN"
 "http://www.w3.org/Graphics/SVG/1.1/DTD/svg11.dtd">
<!-- Generated by graphviz version 2.40.1 (0)
 -->
<!-- Title: snakemake_dag Pages: 1 -->
<svg width="193pt" height="332pt"
 viewBox="0.00 0.00 193.00 332.00" xmlns="http://www.w3.org/2000/svg" xmlns:xlink="http://www.w3.org/1999/xlink">
<g id="graph0" class="graph" transform="scale(1 1) rotate(0) translate(4 328)">
<title>snakemake_dag</title>
<polygon fill="#ffffff" stroke="transparent" points="-4,4 -4,-328 189,-328 189,4 -4,4"/>
<!-- 0 -->
<g id="node1" class="node">
<title>0</title>
<path fill="none" stroke="#d85656" stroke-width="2" d="M137,-324C137,-324 91,-324 91,-324 85,-324 79,-318 79,-312 79,-312 79,-300 79,-300 79,-294 85,-288 91,-288 91,-288 137,-288 137,-288 143,-288 149,-294 149,-300 149,-300 149,-312 149,-312 149,-318 143,-324 137,-324"/>
<text text-anchor="middle" x="114" y="-303.5" font-family="sans" font-size="10.00" fill="#000000">load_index</text>
</g>
<!-- 2 -->
<g id="node3" class="node">
<title>2</title>
<path fill="none" stroke="#56a2d8" stroke-width="2" d="M109.5,-252C109.5,-252 48.5,-252 48.5,-252 42.5,-252 36.5,-246 36.5,-240 36.5,-240 36.5,-228 36.5,-228 36.5,-222 42.5,-216 48.5,-216 48.5,-216 109.5,-216 109.5,-216 115.5,-216 121.5,-222 121.5,-228 121.5,-228 121.5,-240 121.5,-240 121.5,-246 115.5,-252 109.5,-252"/>
<text text-anchor="middle" x="79" y="-231.5" font-family="sans" font-size="10.00" fill="#000000">salmon_index</text>
</g>
<!-- 0&#45;&gt;2 -->
<g id="edge1" class="edge">
<title>0&#45;&gt;2</title>
<path fill="none" stroke="#c0c0c0" stroke-width="2" d="M105.168,-287.8314C101.3014,-279.8771 96.6794,-270.369 92.4032,-261.5723"/>
<polygon fill="#c0c0c0" stroke="#c0c0c0" stroke-width="2" points="95.4707,-259.8768 87.9509,-252.4133 89.1751,-262.9371 95.4707,-259.8768"/>
</g>
<!-- 5 -->
<g id="node6" class="node">
<title>5</title>
<path fill="none" stroke="#56d8c9" stroke-width="2" d="M173,-36C173,-36 143,-36 143,-36 137,-36 131,-30 131,-24 131,-24 131,-12 131,-12 131,-6 137,0 143,0 143,0 173,0 173,0 179,0 185,-6 185,-12 185,-12 185,-24 185,-24 185,-30 179,-36 173,-36"/>
<text text-anchor="middle" x="158" y="-15.5" font-family="sans" font-size="10.00" fill="#000000">all</text>
</g>
<!-- 0&#45;&gt;5 -->
<g id="edge5" class="edge">
<title>0&#45;&gt;5</title>
<path fill="none" stroke="#c0c0c0" stroke-width="2" d="M124.3162,-287.9578C137.2836,-264.1395 158.8335,-220.4771 167,-180 176.3095,-133.8578 169.6301,-78.9263 163.869,-46.342"/>
<polygon fill="#c0c0c0" stroke="#c0c0c0" stroke-width="2" points="167.2503,-45.3815 161.9749,-36.1934 160.3691,-46.6658 167.2503,-45.3815"/>
</g>
<!-- 1 -->
<g id="node2" class="node">
<title>1</title>
<path fill="none" stroke="#56d87b" stroke-width="2" d="M146,-180C146,-180 116,-180 116,-180 110,-180 104,-174 104,-168 104,-168 104,-156 104,-156 104,-150 110,-144 116,-144 116,-144 146,-144 146,-144 152,-144 158,-150 158,-156 158,-156 158,-168 158,-168 158,-174 152,-180 146,-180"/>
<text text-anchor="middle" x="131" y="-159.5" font-family="sans" font-size="10.00" fill="#000000">fastqc</text>
</g>
<!-- 4 -->
<g id="node5" class="node">
<title>4</title>
<path fill="none" stroke="#c6d856" stroke-width="2" d="M146,-108C146,-108 116,-108 116,-108 110,-108 104,-102 104,-96 104,-96 104,-84 104,-84 104,-78 110,-72 116,-72 116,-72 146,-72 146,-72 152,-72 158,-78 158,-84 158,-84 158,-96 158,-96 158,-102 152,-108 146,-108"/>
<text text-anchor="middle" x="131" y="-87.5" font-family="sans" font-size="10.00" fill="#000000">multiqc</text>
</g>
<!-- 1&#45;&gt;4 -->
<g id="edge3" class="edge">
<title>1&#45;&gt;4</title>
<path fill="none" stroke="#c0c0c0" stroke-width="2" d="M131,-143.8314C131,-136.131 131,-126.9743 131,-118.4166"/>
<polygon fill="#c0c0c0" stroke="#c0c0c0" stroke-width="2" points="134.5001,-118.4132 131,-108.4133 127.5001,-118.4133 134.5001,-118.4132"/>
</g>
<!-- 3 -->
<g id="node4" class="node">
<title>3</title>
<path fill="none" stroke="#d8a456" stroke-width="2" d="M74,-180C74,-180 12,-180 12,-180 6,-180 0,-174 0,-168 0,-168 0,-156 0,-156 0,-150 6,-144 12,-144 12,-144 74,-144 74,-144 80,-144 86,-150 86,-156 86,-156 86,-168 86,-168 86,-174 80,-180 74,-180"/>
<text text-anchor="middle" x="43" y="-159.5" font-family="sans" font-size="10.00" fill="#000000">salmon_quant</text>
</g>
<!-- 2&#45;&gt;3 -->
<g id="edge2" class="edge">
<title>2&#45;&gt;3</title>
<path fill="none" stroke="#c0c0c0" stroke-width="2" d="M69.9157,-215.8314C65.9385,-207.8771 61.1845,-198.369 56.7861,-189.5723"/>
<polygon fill="#c0c0c0" stroke="#c0c0c0" stroke-width="2" points="59.8093,-187.7923 52.2066,-180.4133 53.5483,-190.9228 59.8093,-187.7923"/>
</g>
<!-- 3&#45;&gt;4 -->
<g id="edge4" class="edge">
<title>3&#45;&gt;4</title>
<path fill="none" stroke="#c0c0c0" stroke-width="2" d="M65.2061,-143.8314C76.045,-134.9632 89.2444,-124.1637 100.9678,-114.5718"/>
<polygon fill="#c0c0c0" stroke="#c0c0c0" stroke-width="2" points="103.2777,-117.2041 108.801,-108.1628 98.845,-111.7864 103.2777,-117.2041"/>
</g>
<!-- 4&#45;&gt;5 -->
<g id="edge6" class="edge">
<title>4&#45;&gt;5</title>
<path fill="none" stroke="#c0c0c0" stroke-width="2" d="M137.8132,-71.8314C140.7644,-63.9617 144.2858,-54.5712 147.555,-45.8533"/>
<polygon fill="#c0c0c0" stroke="#c0c0c0" stroke-width="2" points="150.8609,-47.0055 151.095,-36.4133 144.3066,-44.5476 150.8609,-47.0055"/>
</g>
</g>
</svg>
